Coordinates
version=1
nRows=29
nColumns=24
inDegrees=yes

Units are S.I. units (second, meters, Newtons, ...)
Angles are in degrees.

endheader
time	pelvis_tilt	pelvis_list	pelvis_rotation	pelvis_tx	pelvis_ty	pelvis_tz	hip_flexion_r	hip_adduction_r	hip_rotation_r	knee_angle_r	ankle_angle_r	subtalar_angle_r	mtp_angle_r	hip_flexion_l	hip_adduction_l	hip_rotation_l	knee_angle_l	ankle_angle_l	subtalar_angle_l	mtp_angle_l	lumbar_extension	lumbar_bending	lumbar_rotation
      5.78000000	      8.60879776	      1.20080081	      4.69677345	      1.98206660	      0.88230590	     -0.27280030	     18.67731735	     -0.47485672	     -4.18730194	    -14.77952880	     12.48454361	      8.16101882	      0.00000000	    -29.68257912	      1.61632173	      2.47162324	    -19.21886327	     10.18202721	      0.94384276	      0.00000000	    -32.48447168	      4.75517083	    -11.24001206
      5.79000000	      8.69211660	      0.57478962	      4.92511175	      1.99904822	      0.88050946	     -0.27193241	     19.67449615	      0.16451098	     -4.52349805	    -18.32173294	     12.42327215	      7.91604105	      0.00000000	    -28.37439521	      0.43687854	      0.75580351	    -22.90632665	      8.17697522	      2.52518799	      0.00000000	    -32.28429719	      5.76353536	    -11.15461858
      5.80000000	      8.97016239	     -0.12735845	      5.27804955	      2.01583055	      0.87922010	     -0.27126081	     20.35292725	      0.83718461	     -5.14628698	    -21.71647992	     12.96050376	      7.81926858	      0.00000000	    -27.03993042	     -0.93246104	     -0.50205397	    -26.78935713	      5.70406027	      3.81416762	      0.00000000	    -32.32446490	      6.92150984	    -11.10314958
      5.81000000	      9.33887739	     -0.83405057	      5.77690161	      2.03231842	      0.87827872	     -0.27078916	     20.76518369	      1.46524287	     -5.98965328	    -24.86790529	     14.08684707	      7.88100403	      0.00000000	    -25.55180713	     -2.38433989	     -1.22580735	    -30.87024610	      3.06731580	      4.91264114	      0.00000000	    -32.47913854	      8.13108099	    -11.15112136
      5.82000000	      9.71620637	     -1.52533467	      6.44154732	      2.04845045	      0.87755588	     -0.27049718	     20.92648514	      2.03838184	     -6.99448605	    -27.63912229	     15.63162810	      8.03317041	      0.00000000	    -23.82646604	     -3.86561059	     -1.41761704	    -35.11600217	      0.67005714	      5.95840046	      0.00000000	    -32.63564746	      9.34916576	    -11.30096317
      5.83000000	     10.01350883	     -2.18702620	      7.28380837	      2.06416189	      0.87694602	     -0.27035565	     20.88244158	      2.55634232	     -8.10594368	    -29.91515727	     17.38141404	      8.18233216	      0.00000000	    -21.78341283	     -5.31576789	     -1.08952917	    -39.47665735	     -1.11624232	      7.03872158	      0.00000000	    -32.67930926	     10.54294604	    -11.52300650
      5.84000000	     10.17211415	     -2.79432713	      8.28072397	      2.07941230	      0.87641241	     -0.27032491	     20.69234917	      3.00685930	     -9.28235633	    -31.66122551	     19.16500442	      8.28983042	      0.00000000	    -19.39927877	     -6.64857280	     -0.31355423	    -43.86228998	     -2.07452713	      8.08824661	      0.00000000	    -32.53804909	     11.65769192	    -11.81181958
      5.85000000	     10.18518439	     -3.32563094	      9.38939209	      2.09419012	      0.87602915	     -0.27037455	     20.38296085	      3.38574956	    -10.47621395	    -32.89050163	     20.85680395	      8.33459895	      0.00000000	    -16.71852647	     -7.78182404	      0.80054806	    -48.16308935	     -2.19227415	      8.95086764	      0.00000000	    -32.20777964	     12.64759344	    -12.13764038
      5.86000000	     10.08482556	     -3.75955624	     10.55053842	      2.10851522	      0.87595271	     -0.27048648	     19.95000714	      3.69661396	    -11.62537602	    -33.64800727	     22.37825705	      8.30953857	      0.00000000	    -13.82648320	     -8.64731136	      2.11423793	    -52.27660877	     -1.63512616	      9.46055318	      0.00000000	    -31.74007402	     13.47411681	    -12.46769178
      5.87000000	      9.93360195	     -4.07831345	     11.69849242	      2.12243195	      0.87638036	     -0.27064363	     19.35902768	      3.95218234	    -12.67043717	    -33.99472950	     23.67846669	      8.20702169	      0.00000000	    -10.83243676	     -9.20583890	      3.47714806	    -56.12271961	     -0.69004109	      9.48955757	      0.00000000	    -31.22945154	     14.11060672	    -12.76504816
      5.88000000	      9.78196412	     -4.27016324	     12.75971863	      2.13600367	      0.87745826	     -0.27082233	     18.58807719	      4.17158293	    -13.54047928	    -33.99802194	     24.74999071	      8.02682560	      0.00000000	     -7.83042442	     -9.44104939	      4.75009367	    -59.64437523	      0.34686071	      9.00386626	      0.00000000	    -30.75656732	     14.54118549	    -12.98916133
      5.89000000	      9.67029019	     -4.33639564	     13.67575164	      2.14928980	      0.87927154	     -0.27101088	     17.61704627	      4.37596731	    -14.18814367	    -33.70839319	     25.57897649	      7.76531054	      0.00000000	     -4.91394557	     -9.36695818	      5.83542220	    -62.79018141	      1.24351372	      8.04751398	      0.00000000	    -30.39651521	     14.77715754	    -13.09317409
      5.90000000	      9.57340720	     -4.28425454	     14.37913873	      2.16240203	      0.88176886	     -0.27115372	     16.48270335	      4.58737845	    -14.51685078	    -33.15618107	     26.19764477	      7.46160439	      0.00000000	     -2.14600170	     -8.99993964	      6.66250845	    -65.48968128	      1.97348642	      6.74381835	      0.00000000	    -30.11586786	     14.80963482	    -13.06831940
      5.91000000	      9.51012064	     -4.13960469	     14.85520867	      2.17537072	      0.88488657	     -0.27123229	     15.19132626	      4.80712164	    -14.58323655	    -32.39037823	     26.60607515	      7.10562713	      0.00000000	      0.40388986	     -8.42402986	      7.19289497	    -67.71139941	      2.53232185	      5.28920952	      0.00000000	    -29.94779517	     14.67231910	    -12.87090729
      5.92000000	      9.47480076	     -3.92851962	     15.11111195	      2.18827476	      0.88854813	     -0.27125153	     13.73704450	      5.03860550	    -14.42794056	    -31.39219220	     26.84489738	      6.75875856	      0.00000000	      2.71014860	     -7.70881329	      7.43712590	    -69.43621305	      2.98054512	      3.84680495	      0.00000000	    -29.86368525	     14.40562215	    -12.50768854
      5.93000000	      9.37450586	     -3.63352719	     15.11177334	      2.20111779	      0.89254373	     -0.27112725	     12.24109374	      5.22884395	    -13.98852374	    -30.21981834	     26.93829103	      6.42179414	      0.00000000	      4.86360215	     -6.84782043	      7.36844677	    -70.68570913	      3.37193854	      2.49389182	      0.00000000	    -29.77059398	     13.95470129	    -12.02164351
      5.94000000	      9.23766620	     -3.25213798	     14.94086681	      2.21390473	      0.89683032	     -0.27093215	     10.66199905	      5.33589293	    -13.42575705	    -28.85499403	     26.87273035	      6.01873052	      0.00000000	      6.85818097	     -5.87516139	      7.07245896	    -71.47798643	      3.70748680	      1.38596896	      0.00000000	    -29.67768606	     13.34220182	    -11.37880007
      5.95000000	      9.09773849	     -2.83951337	     14.66172409	      2.22666836	      0.90132542	     -0.27070399	      8.95847527	      5.41165826	    -12.81455587	    -27.25266796	     26.63828787	      5.55571496	      0.00000000	      8.69453299	     -4.89452685	      6.59966242	    -71.83729137	      4.06127526	      0.52420853	      0.00000000	    -29.58471867	     12.66954116	    -10.70876711
      5.96000000	      8.91917636	     -2.36044045	     14.26537097	      2.23938190	      0.90587985	     -0.27042178	      7.21180168	      5.38114758	    -12.21105950	    -25.51360328	     26.36600366	      5.21719956	      0.00000000	     10.40794040	     -3.87357538	      5.94224152	    -71.77843682	      4.41581899	     -0.06584990	      0.00000000	    -29.46785392	     11.87840692	     -9.98679723
      5.97000000	      8.70932039	     -1.83410734	     13.81461367	      2.25201783	      0.91037828	     -0.27012433	      5.44575785	      5.25623118	    -11.71133589	    -23.66768875	     26.00909168	      4.88417612	      0.00000000	     12.02138942	     -2.84571746	      5.16110851	    -71.33136670	      4.80771193	     -0.37381608	      0.00000000	    -29.31815838	     11.01185449	     -9.24081845
      5.98000000	      8.45725527	     -1.27359553	     13.32015788	      2.26457426	      0.91470287	     -0.26980379	      3.71601342	      5.04048533	    -11.37795978	    -21.78366349	     25.61579000	      4.64080685	      0.00000000	     13.55579708	     -1.83161284	      4.26940556	    -70.51161193	      5.20606707	     -0.43764458	      0.00000000	    -29.11915675	     10.08508342	     -8.50992804
      5.99000000	      8.17204206	     -0.70198810	     12.79262740	      2.27704719	      0.91876101	     -0.26944543	      2.05150107	      4.76840823	    -11.21689878	    -19.91495993	     25.19604289	      4.47779622	      0.00000000	     15.01460373	     -0.86925407	      3.27747808	    -69.34223889	      5.59016982	     -0.30009921	      0.00000000	    -28.87649812	      9.12622552	     -7.79805111
      6.00000000	      7.85269825	     -0.14855747	     12.22092900	      2.28944712	      0.92246797	     -0.26902244	      0.49278321	      4.47169103	    -11.22483587	    -18.12328569	     24.80635543	      4.48667477	      0.00000000	     16.40488012	      0.00072729	      2.18303801	    -67.84264879	      5.93937429	     -0.02116783	      0.00000000	    -28.58470042	      8.16241241	     -7.11214786
      6.01000000	      7.56660475	      0.36005875	     11.62911555	      2.30175548	      0.92583688	     -0.26854127	     -1.02311174	      4.21085935	    -11.34749198	    -16.40704055	     24.33296250	      4.44714143	      0.00000000	     17.66294091	      0.74169493	      1.03392331	    -66.03497010	      6.23142666	      0.38942932	      0.00000000	    -28.32681386	      7.24560550	     -6.37856379
      6.02000000	      7.26411537	      0.79621076	     10.99743435	      2.31400220	      0.92874329	     -0.26797940	     -2.42054778	      3.99985156	    -11.52188698	    -14.81553695	     23.89485332	      4.53477846	      0.00000000	     18.84521350	      1.32943882	     -0.18032342	    -63.94551047	      6.45277108	      0.87577204	      0.00000000	    -28.03378929	      6.39045429	     -5.68733034
      6.03000000	      6.97022062	      1.14628275	     10.35060001	      2.32618824	      0.93118122	     -0.26739239	     -3.72109985	      3.85412519	    -11.73814918	    -13.36309629	     23.49112002	      4.66823892	      0.00000000	     19.91681492	      1.77100164	     -1.39669752	    -61.58029735	      6.60265244	      1.42955926	      0.00000000	    -27.72921947	      5.63149571	     -4.97656374
      6.04000000	      6.80810877	      1.38202200	      9.69515852	      2.33829752	      0.93326193	     -0.26676628	     -5.09845130	      3.84597585	    -11.84313358	    -11.96506543	     22.96731508	      4.68868807	      0.00000000	     20.75331855	      2.01485132	     -2.58929253	    -58.97280157	      6.75203634	      2.10193643	      0.00000000	    -27.57007927	      5.03077799	     -4.28574343
      6.05000000	      6.59080541	      1.52018563	      9.02704496	      2.35036976	      0.93473514	     -0.26614390	     -6.31602986	      3.89062448	    -11.88388899	    -10.72642369	     22.61070495	      4.83289094	      0.00000000	     21.53737282	      2.15227239	     -3.71531944	    -56.11573592	      6.86371300	      2.81483981	      0.00000000	    -27.32007196	      4.53270599	     -3.62419639
      6.06000000	      6.52474548	      1.53855440	      8.38394477	      2.36238563	      0.93584665	     -0.26554183	     -7.66591953	      4.07552814	    -11.72895468	     -9.50760773	     22.09580482	      4.75719481	      0.00000000	     22.04696637	      2.14057128	     -4.70507339	    -53.02215561	      7.04087337	      3.68298718	      0.00000000	    -27.23293345	      4.21657589	     -3.05764838
